<svg xmlns="http://www.w3.org/2000/svg" xmlns:xlink="http://www.w3.org/1999/xlink">
  <defs>
 
  <symbol viewBox="-4.5 -5 24 24" id="cross">
      <path 
    d="M11.7816 4.03157C12.0062 3.80702 12.0062 3.44295 11.7816 3.2184C11.5571 2.99385 11.193 2.99385 10.9685 3.2184L7.50005 6.68682L4.03164 3.2184C3.80708 2.99385 3.44301 2.99385 3.21846 3.2184C2.99391 3.44295 2.99391 3.80702 3.21846 4.03157L6.68688 7.49999L3.21846 10.9684C2.99391 11.193 2.99391 11.557 3.21846 11.7816C3.44301 12.0061 3.80708 12.0061 4.03164 11.7816L7.50005 8.31316L10.9685 11.7816C11.193 12.0061 11.5571 12.0061 11.7816 11.7816C12.0062 11.557 12.0062 11.193 11.7816 10.9684L8.31322 7.49999L11.7816 4.03157Z"


 />
    </symbol>
    <symbol viewBox="-4.5 -5 24 24" id="arrowDown">
      <path 
    d="M7.5 2C7.77614 2 8 2.22386 8 2.5L8 11.2929L11.1464 8.14645C11.3417 7.95118 11.6583 7.95118 11.8536 8.14645C12.0488 8.34171 12.0488 8.65829 11.8536 8.85355L7.85355 12.8536C7.75979 12.9473 7.63261 13 7.5 13C7.36739 13 7.24021 12.9473 7.14645 12.8536L3.14645 8.85355C2.95118 8.65829 2.95118 8.34171 3.14645 8.14645C3.34171 7.95118 3.65829 7.95118 3.85355 8.14645L7 11.2929L7 2.5C7 2.22386 7.22386 2 7.5 2Z"

 />
    </symbol>
        <symbol viewBox="-4.5 -5 24 24" id="arrowUp">
      <path 
    d="M7.14645 2.14645C7.34171 1.95118 7.65829 1.95118 7.85355 2.14645L11.8536 6.14645C12.0488 6.34171 12.0488 6.65829 11.8536 6.85355C11.6583 7.04882 11.3417 7.04882 11.1464 6.85355L8 3.70711L8 12.5C8 12.7761 7.77614 13 7.5 13C7.22386 13 7 12.7761 7 12.5L7 3.70711L3.85355 6.85355C3.65829 7.04882 3.34171 7.04882 3.14645 6.85355C2.95118 6.65829 2.95118 6.34171 3.14645 6.14645L7.14645 2.14645Z"

 />
    </symbol>
    <symbol viewBox="-4.5 -5 24 24" id="handle">
      <path 
            d="M5.5 4.625C6.12132 4.625 6.625 4.12132 6.625 3.5C6.625 2.87868 6.12132 2.375 5.5 2.375C4.87868 2.375 4.375 2.87868 4.375 3.5C4.375 4.12132 4.87868 4.625 5.5 4.625ZM9.5 4.625C10.1213 4.625 10.625 4.12132 10.625 3.5C10.625 2.87868 10.1213 2.375 9.5 2.375C8.87868 2.375 8.375 2.87868 8.375 3.5C8.375 4.12132 8.87868 4.625 9.5 4.625ZM10.625 7.5C10.625 8.12132 10.1213 8.625 9.5 8.625C8.87868 8.625 8.375 8.12132 8.375 7.5C8.375 6.87868 8.87868 6.375 9.5 6.375C10.1213 6.375 10.625 6.87868 10.625 7.5ZM5.5 8.625C6.12132 8.625 6.625 8.12132 6.625 7.5C6.625 6.87868 6.12132 6.375 5.5 6.375C4.87868 6.375 4.375 6.87868 4.375 7.5C4.375 8.12132 4.87868 8.625 5.5 8.625ZM10.625 11.5C10.625 12.1213 10.1213 12.625 9.5 12.625C8.87868 12.625 8.375 12.1213 8.375 11.5C8.375 10.8787 8.87868 10.375 9.5 10.375C10.1213 10.375 10.625 10.8787 10.625 11.5ZM5.5 12.625C6.12132 12.625 6.625 12.1213 6.625 11.5C6.625 10.8787 6.12132 10.375 5.5 10.375C4.87868 10.375 4.375 10.8787 4.375 11.5C4.375 12.1213 4.87868 12.625 5.5 12.625Z"
 />
    </symbol>
  <symbol viewBox="-4.5 -5 24 24" id="slash">
      <path 
           d="M4.10876 14L9.46582 1H10.8178L5.46074 14H4.10876Z"
 />
    </symbol>
     <symbol viewBox="-4.5 -5 24 24" id="check">
      <path 
    d="M11.4669 3.72684C11.7558 3.91574 11.8369 4.30308 11.648 4.59198L7.39799 11.092C7.29783 11.2452 7.13556 11.3467 6.95402 11.3699C6.77247 11.3931 6.58989 11.3355 6.45446 11.2124L3.70446 8.71241C3.44905 8.48022 3.43023 8.08494 3.66242 7.82953C3.89461 7.57412 4.28989 7.55529 4.5453 7.78749L6.75292 9.79441L10.6018 3.90792C10.7907 3.61902 11.178 3.53795 11.4669 3.72684Z"

 />
    </symbol>
  <symbol viewBox="-4.5 -5 24 24" id="minus">
      <path 
  d="M2.25 7.5C2.25 7.22386 2.47386 7 2.75 7H12.25C12.5261 7 12.75 7.22386 12.75 7.5C12.75 7.77614 12.5261 8 12.25 8H2.75C2.47386 8 2.25 7.77614 2.25 7.5Z"

 />
    </symbol>
        <symbol viewBox="-4.5 -5 24 24" id="plus">
      <path 

    d="M8 2.75C8 2.47386 7.77614 2.25 7.5 2.25C7.22386 2.25 7 2.47386 7 2.75V7H2.75C2.47386 7 2.25 7.22386 2.25 7.5C2.25 7.77614 2.47386 8 2.75 8H7V12.25C7 12.5261 7.22386 12.75 7.5 12.75C7.77614 12.75 8 12.5261 8 12.25V8H12.25C12.5261 8 12.75 7.77614 12.75 7.5C12.75 7.22386 12.5261 7 12.25 7H8V2.75Z"
 />
    </symbol>
  <symbol viewBox="-4.5 -5 24 24" id="star">
      <path 
    d="M7.22303 0.665992C7.32551 0.419604 7.67454 0.419604 7.77702 0.665992L9.41343 4.60039C9.45663 4.70426 9.55432 4.77523 9.66645 4.78422L13.914 5.12475C14.18 5.14607 14.2878 5.47802 14.0852 5.65162L10.849 8.42374C10.7636 8.49692 10.7263 8.61176 10.7524 8.72118L11.7411 12.866C11.803 13.1256 11.5206 13.3308 11.2929 13.1917L7.6564 10.9705C7.5604 10.9119 7.43965 10.9119 7.34365 10.9705L3.70718 13.1917C3.47945 13.3308 3.19708 13.1256 3.25899 12.866L4.24769 8.72118C4.2738 8.61176 4.23648 8.49692 4.15105 8.42374L0.914889 5.65162C0.712228 5.47802 0.820086 5.14607 1.08608 5.12475L5.3336 4.78422C5.44573 4.77523 5.54342 4.70426 5.58662 4.60039L7.22303 0.665992Z"

 />
    </symbol>
     <symbol viewBox="-4.5 -5 24 24" id="heart">
      <path 
    d="M1.35248 4.90532C1.35248 2.94498 2.936 1.35248 4.89346 1.35248C6.25769 1.35248 6.86058 1.92336 7.50002 2.93545C8.13946 1.92336 8.74235 1.35248 10.1066 1.35248C12.064 1.35248 13.6476 2.94498 13.6476 4.90532C13.6476 6.74041 12.6013 8.50508 11.4008 9.96927C10.2636 11.3562 8.92194 12.5508 8.00601 13.3664C7.94645 13.4194 7.88869 13.4709 7.83291 13.5206C7.64324 13.6899 7.3568 13.6899 7.16713 13.5206C7.11135 13.4709 7.05359 13.4194 6.99403 13.3664C6.0781 12.5508 4.73641 11.3562 3.59926 9.96927C2.39872 8.50508 1.35248 6.74041 1.35248 4.90532Z"

 />
    </symbol>
  <symbol viewBox="-4.5 -5 24 24" id="pin">
      <path 
   d="M10 3.5C10 4.70948 9.14112 5.71836 8 5.94999V13.5C8 13.7761 7.77614 14 7.5 14C7.22386 14 7 13.7761 7 13.5V5.94999C5.85888 5.71836 5 4.70948 5 3.5C5 2.11929 6.11929 1 7.5 1C8.88071 1 10 2.11929 10 3.5Z"

 />
    </symbol>
    <symbol viewBox="-4.5 -5 24 24" id="bookmark">
      <path 
   d="M3.5 2C3.22386 2 3 2.22386 3 2.5V13.5C3 13.6818 3.09864 13.8492 3.25762 13.9373C3.41659 14.0254 3.61087 14.0203 3.765 13.924L7.5 11.5896L11.235 13.924C11.3891 14.0203 11.5834 14.0254 11.7424 13.9373C11.9014 13.8492 12 13.6818 12 13.5V2.5C12 2.22386 11.7761 2 11.5 2H3.5Z"

 />
    </symbol>
  <symbol viewBox="-4.5 -5 24 24" id="dotsX">
      <path 
d="M3.625 7.5C3.625 8.12132 3.12132 8.625 2.5 8.625C1.87868 8.625 1.375 8.12132 1.375 7.5C1.375 6.87868 1.87868 6.375 2.5 6.375C3.12132 6.375 3.625 6.87868 3.625 7.5ZM8.625 7.5C8.625 8.12132 8.12132 8.625 7.5 8.625C6.87868 8.625 6.375 8.12132 6.375 7.5C6.375 6.87868 6.87868 6.375 7.5 6.375C8.12132 6.375 8.625 6.87868 8.625 7.5ZM12.5 8.625C13.1213 8.625 13.625 8.12132 13.625 7.5C13.625 6.87868 13.1213 6.375 12.5 6.375C11.8787 6.375 11.375 6.87868 11.375 7.5C11.375 8.12132 11.8787 8.625 12.5 8.625Z"

 />
    </symbol>
     <symbol viewBox="-4.5 -5 24 24" id="dotsY">
      <path 
    d="M8.625 2.5C8.625 3.12132 8.12132 3.625 7.5 3.625C6.87868 3.625 6.375 3.12132 6.375 2.5C6.375 1.87868 6.87868 1.375 7.5 1.375C8.12132 1.375 8.625 1.87868 8.625 2.5ZM8.625 7.5C8.625 8.12132 8.12132 8.625 7.5 8.625C6.87868 8.625 6.375 8.12132 6.375 7.5C6.375 6.87868 6.87868 6.375 7.5 6.375C8.12132 6.375 8.625 6.87868 8.625 7.5ZM7.5 13.625C8.12132 13.625 8.625 13.1213 8.625 12.5C8.625 11.8787 8.12132 11.375 7.5 11.375C6.87868 11.375 6.375 11.8787 6.375 12.5C6.375 13.1213 6.87868 13.625 7.5 13.625Z"

 />
    </symbol>
  <symbol viewBox="-4.5 -5 24 24" id="caretUp">
      <path 
    d="M4.18179 8.81819C4.00605 8.64245 4.00605 8.35753 4.18179 8.18179L7.18179 5.18179C7.26618 5.0974 7.38064 5.04999 7.49999 5.04999C7.61933 5.04999 7.73379 5.0974 7.81819 5.18179L10.8182 8.18179C10.9939 8.35753 10.9939 8.64245 10.8182 8.81819C10.6424 8.99392 10.3575 8.99392 10.1818 8.81819L7.49999 6.13638L4.81819 8.81819C4.64245 8.99392 4.35753 8.99392 4.18179 8.81819Z"
 />
    </symbol>
        <symbol viewBox="-4.5 -5 24 24" id="caretDown">
      <path 
    d="M4.18179 6.18181C4.35753 6.00608 4.64245 6.00608 4.81819 6.18181L7.49999 8.86362L10.1818 6.18181C10.3575 6.00608 10.6424 6.00608 10.8182 6.18181C10.9939 6.35755 10.9939 6.64247 10.8182 6.81821L7.81819 9.81821C7.73379 9.9026 7.61934 9.95001 7.49999 9.95001C7.38064 9.95001 7.26618 9.9026 7.18179 9.81821L4.18179 6.81821C4.00605 6.64247 4.00605 6.35755 4.18179 6.18181Z"

 />
    </symbol>
  <symbol viewBox="-4.5 -5 24 24" id="caretRight">
      <path 
    d="M8.81809 4.18179C8.99383 4.35753 8.99383 4.64245 8.81809 4.81819L6.13629 7.49999L8.81809 10.1818C8.99383 10.3575 8.99383 10.6424 8.81809 10.8182C8.64236 10.9939 8.35743 10.9939 8.1817 10.8182L5.1817 7.81819C5.09731 7.73379 5.0499 7.61933 5.0499 7.49999C5.0499 7.38064 5.09731 7.26618 5.1817 7.18179L8.1817 4.18179C8.35743 4.00605 8.64236 4.00605 8.81809 4.18179Z"

 />
    </symbol>
     <symbol viewBox="-4.5 -5 24 24" id="caretLeft">
      <path 
    d="M8.84182 3.13514C9.04327 3.32401 9.05348 3.64042 8.86462 3.84188L5.43521 7.49991L8.86462 11.1579C9.05348 11.3594 9.04327 11.6758 8.84182 11.8647C8.64036 12.0535 8.32394 12.0433 8.13508 11.8419L4.38508 7.84188C4.20477 7.64955 4.20477 7.35027 4.38508 7.15794L8.13508 3.15794C8.32394 2.95648 8.64036 2.94628 8.84182 3.13514Z"
 />
    </symbol>
  <symbol viewBox="-4.5 -5 24 24" id="chevronUp">
      <path 
    d="M3.13523 8.84197C3.3241 9.04343 3.64052 9.05363 3.84197 8.86477L7.5 5.43536L11.158 8.86477C11.3595 9.05363 11.6759 9.04343 11.8648 8.84197C12.0536 8.64051 12.0434 8.32409 11.842 8.13523L7.84197 4.38523C7.64964 4.20492 7.35036 4.20492 7.15803 4.38523L3.15803 8.13523C2.95657 8.32409 2.94637 8.64051 3.13523 8.84197Z"
 />
    </symbol>
      <symbol viewBox="-4.5 -5 24 24" id="chevronDown">
      <path 
   d="M3.13523 6.15803C3.3241 5.95657 3.64052 5.94637 3.84197 6.13523L7.5 9.56464L11.158 6.13523C11.3595 5.94637 11.6759 5.95657 11.8648 6.15803C12.0536 6.35949 12.0434 6.67591 11.842 6.86477L7.84197 10.6148C7.64964 10.7951 7.35036 10.7951 7.15803 10.6148L3.15803 6.86477C2.95657 6.67591 2.94637 6.35949 3.13523 6.15803Z"
 />
    </symbol>
      <symbol viewBox="-4.5 -5 24 24" id="chevronRight">
      <path 
    d="M6.1584 3.13508C6.35985 2.94621 6.67627 2.95642 6.86514 3.15788L10.6151 7.15788C10.7954 7.3502 10.7954 7.64949 10.6151 7.84182L6.86514 11.8418C6.67627 12.0433 6.35985 12.0535 6.1584 11.8646C5.95694 11.6757 5.94673 11.3593 6.1356 11.1579L9.565 7.49985L6.1356 3.84182C5.94673 3.64036 5.95694 3.32394 6.1584 3.13508Z"
 />
    </symbol>
      <symbol viewBox="-4.5 -5 24 24" id="chevronLeft">
      <path 
    d="M6.18194 4.18185C6.35767 4.00611 6.6426 4.00611 6.81833 4.18185L9.81833 7.18185C9.90272 7.26624 9.95013 7.3807 9.95013 7.50005C9.95013 7.6194 9.90272 7.73386 9.81833 7.81825L6.81833 10.8182C6.6426 10.994 6.35767 10.994 6.18194 10.8182C6.0062 10.6425 6.0062 10.3576 6.18194 10.1819L8.86374 7.50005L6.18194 4.81825C6.0062 4.64251 6.0062 4.35759 6.18194 4.18185Z"
 />
    </symbol>
    <symbol viewBox="-4.5 -5 24 24" id="github"><path d="M7.49933 0.25C3.49635 0.25 0.25 3.49593 0.25 7.50024C0.25 10.703 2.32715 13.4206 5.2081 14.3797C5.57084 14.446 5.70302 14.2222 5.70302 14.0299C5.70302 13.8576 5.69679 13.4019 5.69323 12.797C3.67661 13.235 3.25112 11.825 3.25112 11.825C2.92132 10.9874 2.44599 10.7644 2.44599 10.7644C1.78773 10.3149 2.49584 10.3238 2.49584 10.3238C3.22353 10.375 3.60629 11.0711 3.60629 11.0711C4.25298 12.1788 5.30335 11.8588 5.71638 11.6732C5.78225 11.205 5.96962 10.8854 6.17658 10.7043C4.56675 10.5209 2.87415 9.89918 2.87415 7.12104C2.87415 6.32925 3.15677 5.68257 3.62053 5.17563C3.54576 4.99226 3.29697 4.25521 3.69174 3.25691C3.69174 3.25691 4.30015 3.06196 5.68522 3.99973C6.26337 3.83906 6.8838 3.75895 7.50022 3.75583C8.1162 3.75895 8.73619 3.83906 9.31523 3.99973C10.6994 3.06196 11.3069 3.25691 11.3069 3.25691C11.7026 4.25521 11.4538 4.99226 11.3795 5.17563C11.8441 5.68257 12.1245 6.32925 12.1245 7.12104C12.1245 9.9063 10.4292 10.5192 8.81452 10.6985C9.07444 10.9224 9.30633 11.3648 9.30633 12.0413C9.30633 13.0102 9.29742 13.7922 9.29742 14.0299C9.29742 14.2239 9.42828 14.4496 9.79591 14.3788C12.6746 13.4179 14.75 10.7025 14.75 7.50024C14.75 3.49593 11.5036 0.25 7.49933 0.25Z"></path></symbol>
  </defs>
</svg>